HIERARCHY
ROOT hip
{
	OFFSET 0.000000 0.000000 0.000000 
	CHANNELS 6 Xposition Yposition Zposition Xrotation Zrotation Yrotation
	JOINT abdomen
	{
		OFFSET 0.000000 3.402643 0.000000 
		CHANNELS 3 Xrotation Zrotation Yrotation
		JOINT chest
		{
			OFFSET 0.000000 8.438565 -0.680529 
			CHANNELS 3 Xrotation Zrotation Yrotation
			JOINT neck
			{
				OFFSET 0.000000 10.207942 -0.272212 
				CHANNELS 3 Xrotation Zrotation Yrotation
				JOINT head
				{
					OFFSET 0.000000 3.130431 0.000000 
					CHANNELS 3 Xrotation Zrotation Yrotation
					End Site
					{
						OFFSET 0.000000 3.130435 0.000000 
					}
				}
			}
			JOINT lCollar
			{
				OFFSET 3.470700 6.669187 -0.816635 
				CHANNELS 3 Yrotation Zrotation Xrotation
				JOINT lShldr
				{
					OFFSET 3.198488 0.000000 0.000000 
					CHANNELS 3 Zrotation Yrotation Xrotation
					JOINT lForeArm
					{
						OFFSET 10.139888 0.000000 0.000000 
						CHANNELS 3 Yrotation Zrotation Xrotation
						JOINT lHand
						{
							OFFSET 8.370511 0.000000 0.000000 
							CHANNELS 3 Zrotation Yrotation Xrotation
							End Site
							{
								OFFSET 4.083176 0.000000 0.000000 
							}
						}
					}
				}
			}
			JOINT rCollar
			{
				OFFSET -3.470700 6.669187 -0.816635 
				CHANNELS 3 Yrotation Zrotation Xrotation
				JOINT rShldr
				{
					OFFSET -3.198488 0.000000 0.000000 
					CHANNELS 3 Zrotation Yrotation Xrotation
					JOINT rForeArm
					{
						OFFSET -10.139888 0.000000 0.000000 
						CHANNELS 3 Yrotation Zrotation Xrotation
						JOINT rHand
						{
							OFFSET -8.370511 0.000000 0.000000 
							CHANNELS 3 Zrotation Yrotation Xrotation
							End Site
							{
								OFFSET -4.083176 0.000000 0.000000 
							}
						}
					}
				}
			}
		}
	}
	JOINT lThigh
	{
		OFFSET 5.308129 -1.633274 1.361059 
		CHANNELS 3 Xrotation Zrotation Yrotation
		JOINT lShin
		{
			OFFSET -2.041588 -20.007561 0.000000 
			CHANNELS 3 Xrotation Zrotation Yrotation
			JOINT lFoot
			{
				OFFSET 0.000000 -19.190928 -1.224953 
				CHANNELS 3 Xrotation Yrotation Zrotation
				End Site
				{
					OFFSET 0.000000 -2.449906 4.627600 
				}
			}
		}
	}
	JOINT rThigh
	{
		OFFSET -5.308129 -1.633274 1.361059 
		CHANNELS 3 Xrotation Zrotation Yrotation
		JOINT rShin
		{
			OFFSET 2.041588 -20.007561 0.000000 
			CHANNELS 3 Xrotation Zrotation Yrotation
			JOINT rFoot
			{
				OFFSET 0.000000 -19.190928 -1.224953 
				CHANNELS 3 Xrotation Yrotation Zrotation
				End Site
				{
					OFFSET 0.000000 -2.449906 4.627600 
				}
			}
		}
	}
}
MOTION
Frames: 8
Frame Time: 0.033333
13.443491 52.347111 -2.657468 -3.203125 5.791016 -130.224609 35.470451 -9.947802 -14.290215 -21.591797 1.201172 -3.916016 51.553619 8.070152 2.616707 -83.876953 -9.218749 -4.384766 2.000000 -2.000000 0.000000 3.935547 44.638340 37.145340 -93.308479 0.082669 -2.661392 27.180235 4.225726 -2.370004 -2.000000 2.000000 0.000000 -16.572266 17.919922 -71.500900 86.962334 -0.469245 -2.742475 -25.834179 -69.450348 11.766487 -16.002527 24.026342 8.886652 24.485584 -5.199588 -2.787335 13.056152 1.886802 -6.449839 -11.841235 -6.986420 -20.288431 23.611898 4.960469 2.432925 -1.844006 -0.776230 13.095982 
13.962419 52.347111 -3.125219 -2.832031 5.947266 -127.206017 36.224323 -10.831986 -14.155966 -21.416018 0.849609 -3.779297 51.553619 8.070152 2.616707 -85.214844 -9.570312 1.455078 2.000000 -2.000000 0.000000 4.824219 43.759766 36.181641 -93.125641 -0.020478 -2.753177 27.105045 4.497283 -2.308517 -2.000000 2.000000 0.000000 -15.332031 15.410155 -71.357422 86.084961 -0.651089 -2.811583 -26.622118 -70.032364 12.186227 -17.477503 24.847704 8.689520 23.788094 -5.335470 -2.742821 13.767592 3.175168 -8.388906 -10.624269 -6.571220 -24.542868 23.083160 4.989515 2.199585 -2.604039 0.253522 11.653584 
14.533334 52.220585 -3.615247 -2.490234 6.142579 -123.847656 37.155899 -11.451678 -14.116700 -21.240236 0.507813 -3.496089 51.553619 8.070152 2.616707 -86.328125 -9.628906 6.601563 2.000000 -2.000000 0.000000 3.623047 43.701172 33.707920 -92.079361 0.089590 -2.710686 28.059011 5.138206 -2.390695 -2.000000 2.000000 0.000000 -14.228516 11.884766 -71.882751 85.558418 -0.659144 -2.841383 -24.945723 -70.414566 9.599488 -18.483353 25.335711 10.534417 23.253603 -5.257724 -2.682311 12.533726 3.224809 -7.994870 -9.928487 -6.018961 -29.161510 23.083160 4.989517 2.199585 -4.492205 0.576737 10.618413 
15.180169 51.999165 -4.078416 -1.972656 6.142579 -120.292961 38.269680 -12.281224 -14.048109 -20.898439 0.322266 -3.173828 51.553619 8.070152 2.616707 -87.119141 -9.150390 10.730869 2.000000 -2.000000 0.000000 1.513672 43.310547 30.143417 -90.484322 -0.040109 -2.585800 28.625196 6.072048 -2.815094 -2.000000 2.000000 0.000000 -12.666016 9.404297 -72.762077 85.382629 -0.668893 -2.841947 -23.618162 -70.906868 8.309049 -19.000170 25.997566 13.460501 22.551117 -5.351454 -2.638346 10.993370 3.207839 -7.078557 -9.645715 -5.530276 -33.218731 23.611898 4.960467 2.432925 -6.312521 0.558444 9.843450 
15.877293 51.690750 -4.498599 -1.611328 6.308594 -116.561424 39.584236 -13.159447 -13.879093 -20.722658 0.156250 -2.841796 51.553619 8.070152 2.616707 -87.363281 -8.515624 14.404297 2.000000 -2.000000 0.000000 -0.791016 42.832035 26.269535 -88.733017 -0.004935 -2.822526 29.701357 6.766719 -3.021712 -2.000000 2.000000 0.000000 -11.171875 8.554688 -74.041519 85.201965 -0.679068 -2.666642 -21.858681 -71.713089 7.757648 -19.910919 26.530117 15.987448 22.356401 -5.283386 -2.580022 8.665938 2.633233 -5.987324 -9.618754 -5.174694 -36.357098 24.684799 5.194932 1.957890 -9.126408 0.485086 9.885383 
16.732210 51.390247 -4.815251 -1.240234 6.474609 -112.655144 40.911243 -13.930889 -13.885742 -20.371094 0.146484 -2.314453 51.553619 8.070152 2.616707 -87.275391 -8.095702 17.968750 2.000000 -2.000000 0.000000 -3.603516 42.617184 21.705832 -86.799690 -0.093244 -2.827181 30.223562 8.120296 -3.720945 -2.000000 2.000000 0.000000 -9.580079 8.447267 -75.957031 85.196175 -0.320180 -2.782664 -22.270214 -72.243042 10.093847 -20.992764 26.710154 17.626871 22.353142 -5.296546 -2.591197 5.251539 2.715147 -6.196107 -10.594104 -5.053434 -39.801949 26.953377 5.076576 1.993733 -10.663941 -0.730612 9.384694 
17.695116 51.026482 -5.001296 -0.722656 6.650391 -108.564453 42.235611 -14.851616 -13.603888 -20.019531 0.136719 -1.787086 51.553619 8.070152 2.616707 -87.011719 -7.724607 21.679689 2.000000 -2.000000 0.000000 -6.464844 42.382813 15.797601 -84.851402 -0.405633 -2.985066 30.327887 9.803779 -4.019598 -2.000000 2.000000 0.000000 -8.476563 8.544922 -77.402344 85.196175 -0.320180 -2.782664 -22.064367 -72.678772 11.428416 -22.742100 26.508869 17.949335 22.363989 -5.292943 -2.592297 1.986637 3.575355 -8.234850 -12.166304 -5.736199 -42.965710 30.491409 4.808712 2.932226 -11.718444 -2.587625 9.409095 
18.537035 50.654808 -5.304417 -0.361328 6.845704 -104.472656 43.538273 -15.515000 -13.399393 -19.667969 0.312500 -1.406197 51.553619 8.070152 2.616707 -86.406250 -7.373046 25.000002 2.000000 -2.000000 0.000000 -9.951172 42.587891 8.453876 -82.563522 -0.360992 -2.889873 29.586443 11.970703 -4.835867 -2.000000 2.000000 0.000000 -7.490234 7.734375 -78.192047 85.020668 -0.329364 -2.792973 -21.033293 -73.358284 10.653237 -26.070839 26.039381 14.955748 23.418152 -5.234247 -2.711725 2.179314 2.432269 -6.774986 -13.250203 -6.183455 -45.498219 32.941216 4.657009 2.828091 -13.047331 -4.833772 9.948646 
